<?xml version="1.0" encoding="UTF-8"?>
<svg xmlns="http://www.w3.org/2000/svg" xmlns:xlink="http://www.w3.org/1999/xlink" width="40pt" height="40pt" viewBox="0 0 40 40" version="1.1">
<g id="surface21162750">
<path style=" stroke:none;fill-rule:nonzero;fill:rgb(53.72549%,65.882353%,58.039216%);fill-opacity:1;" d="M 9.199219 1.601562 C 7.660156 1.601562 6.398438 2.839844 6.398438 4.375 L 6.398438 35.125 C 6.398438 36.933594 7.882812 38.398438 9.699219 38.398438 L 30.300781 38.398438 C 32.117188 38.398438 33.601562 36.933594 33.601562 35.125 L 33.601562 11.601562 C 33.601562 11.386719 33.523438 11.175781 33.375 11.023438 L 24.175781 1.824219 C 24.023438 1.675781 23.8125 1.601562 23.601562 1.601562 Z M 24 3.925781 L 31.273438 11.199219 L 25.324219 11.199219 C 24.589844 11.199219 24 10.609375 24 9.875 Z M 13.601562 19.199219 L 26.398438 19.199219 L 26.398438 30.398438 L 13.601562 30.398438 Z M 15.199219 20.800781 L 15.199219 22.398438 L 19.199219 22.398438 L 19.199219 20.800781 Z M 20.800781 20.800781 L 20.800781 22.398438 L 24.800781 22.398438 L 24.800781 20.800781 Z M 15.199219 24 L 15.199219 25.601562 L 19.199219 25.601562 L 19.199219 24 Z M 20.800781 24 L 20.800781 25.601562 L 24.800781 25.601562 L 24.800781 24 Z M 15.199219 27.199219 L 15.199219 28.800781 L 19.199219 28.800781 L 19.199219 27.199219 Z M 20.800781 27.199219 L 20.800781 28.800781 L 24.800781 28.800781 L 24.800781 27.199219 Z M 20.800781 27.199219 "/>
</g>
</svg>
