<?xml version="1.0" encoding="UTF-8"?>
<svg xmlns="http://www.w3.org/2000/svg" xmlns:xlink="http://www.w3.org/1999/xlink" width="40pt" height="40pt" viewBox="0 0 40 40" version="1.1">
<g id="surface19755360">
<path style=" stroke:none;fill-rule:nonzero;fill:rgb(53.72549%,65.882353%,58.039216%);fill-opacity:1;" d="M 6.875 13.601562 L 0 26.398438 L 14.722656 26.398438 L 21.601562 13.601562 Z M 21.601562 13.601562 L 21.601562 26.15625 L 23.5 26.15625 L 23.5 24.90625 L 23.53125 24.90625 C 24.132812 26.101562 25.449219 26.398438 26.679688 26.398438 C 29.371094 26.398438 30.601562 24.097656 30.601562 21.652344 C 30.601562 18.996094 29.210938 16.816406 26.347656 16.816406 C 25.328125 16.816406 24.183594 17.363281 23.640625 18.242188 L 23.605469 18.242188 L 23.605469 13.601562 Z M 35.902344 16.816406 C 32.914062 16.816406 31.417969 18.964844 31.417969 21.707031 C 31.417969 24.378906 32.984375 26.398438 35.832031 26.398438 C 38.171875 26.398438 39.628906 25.097656 40 22.742188 L 37.996094 22.742188 C 37.800781 24.042969 36.992188 24.820312 35.832031 24.820312 C 34.09375 24.820312 33.421875 23.21875 33.421875 21.707031 C 33.421875 18.945312 34.882812 18.398438 35.921875 18.398438 C 37.027344 18.398438 37.835938 19 37.996094 20.105469 L 40 20.105469 C 39.808594 17.875 38.011719 16.816406 35.902344 16.816406 Z M 26.085938 18.398438 C 27.734375 18.398438 28.597656 19.964844 28.597656 21.617188 C 28.597656 23.199219 27.914062 24.816406 26.085938 24.816406 C 24.464844 24.816406 23.535156 23.445312 23.535156 21.617188 C 23.535156 19.683594 24.398438 18.398438 26.085938 18.398438 Z M 26.085938 18.398438 "/>
</g>
</svg>
