<?xml version="1.0" encoding="UTF-8"?>
<svg xmlns="http://www.w3.org/2000/svg" xmlns:xlink="http://www.w3.org/1999/xlink" width="40pt" height="40pt" viewBox="0 0 40 40" version="1.1">
<g id="surface19753573">
<path style=" stroke:none;fill-rule:nonzero;fill:rgb(53.72549%,65.882353%,58.039216%);fill-opacity:1;" d="M 32.800781 3.199219 L 7.199219 3.199219 C 4.992188 3.199219 3.199219 4.992188 3.199219 7.199219 L 3.199219 32.800781 C 3.199219 35.007812 4.992188 36.800781 7.199219 36.800781 L 32.800781 36.800781 C 35.007812 36.800781 36.800781 35.007812 36.800781 32.800781 L 36.800781 7.199219 C 36.800781 4.992188 35.007812 3.199219 32.800781 3.199219 Z M 29.601562 15.199219 L 28 15.199219 C 26.289062 15.199219 25.601562 15.601562 25.601562 16.800781 L 25.601562 19.199219 L 29.601562 19.199219 L 28.800781 23.199219 L 25.601562 23.199219 L 25.601562 35.199219 L 21.601562 35.199219 L 21.601562 23.199219 L 18.398438 23.199219 L 18.398438 19.199219 L 21.601562 19.199219 L 21.601562 16.800781 C 21.601562 13.601562 23.199219 11.199219 26.398438 11.199219 C 28.71875 11.199219 29.601562 12 29.601562 12 Z M 29.601562 15.199219 "/>
</g>
</svg>
