<?xml version="1.0" encoding="UTF-8"?>
<svg xmlns="http://www.w3.org/2000/svg" xmlns:xlink="http://www.w3.org/1999/xlink" width="35pt" height="35pt" viewBox="0 0 35 35" version="1.1">
<g id="surface20472928">
<path style=" stroke:none;fill-rule:nonzero;fill:rgb(53.72549%,65.882353%,58.039216%);fill-opacity:1;" d="M 10.148438 5.25 L 11.898438 10.851562 L 11.898438 14.351562 L 13.300781 14.351562 L 13.300781 10.851562 L 15.050781 5.25 L 13.648438 5.25 L 12.644531 8.882812 L 12.554688 8.882812 L 11.550781 5.25 Z M 17.027344 7.523438 C 16.421875 7.523438 15.945312 7.691406 15.589844 8.023438 C 15.230469 8.347656 15.050781 8.792969 15.050781 9.34375 L 15.050781 12.355469 C 15.050781 12.964844 15.222656 13.449219 15.570312 13.808594 C 15.921875 14.167969 16.382812 14.351562 16.964844 14.351562 C 17.570312 14.351562 18.042969 14.175781 18.382812 13.824219 C 18.726562 13.476562 18.898438 12.996094 18.898438 12.382812 L 18.898438 9.386719 C 18.898438 8.839844 18.722656 8.390625 18.371094 8.046875 C 18.023438 7.699219 17.574219 7.523438 17.027344 7.523438 Z M 19.949219 7.699219 L 19.949219 13.453125 C 19.949219 13.949219 20.351562 14.351562 20.847656 14.351562 C 21.421875 14.351562 22.019531 13.988281 22.402344 13.550781 L 22.402344 14.351562 L 23.800781 14.351562 L 23.800781 7.699219 L 22.398438 7.699219 L 22.398438 12.671875 C 22.175781 12.902344 21.886719 13.125 21.65625 13.125 C 21.488281 13.125 21.351562 12.988281 21.351562 12.820312 L 21.351562 7.699219 Z M 16.976562 8.75 C 17.265625 8.75 17.5 8.984375 17.5 9.273438 L 17.5 12.601562 C 17.5 12.890625 17.265625 13.125 16.976562 13.125 C 16.683594 13.125 16.449219 12.890625 16.449219 12.601562 L 16.449219 9.273438 C 16.449219 8.984375 16.683594 8.75 16.976562 8.75 Z M 17.5 15.398438 C 16.097656 15.398438 14.382812 15.398438 12.90625 15.421875 C 12.167969 15.433594 11.492188 15.449219 10.945312 15.476562 C 10.394531 15.5 9.992188 15.53125 9.726562 15.585938 C 9.09375 15.722656 8.515625 16.023438 8.070312 16.46875 C 7.621094 16.914062 7.324219 17.496094 7.1875 18.125 C 7.117188 18.460938 7.078125 19.035156 7.046875 19.816406 C 7.015625 20.601562 7 21.566406 7 22.574219 C 7 23.585938 7.015625 24.550781 7.046875 25.332031 C 7.078125 26.113281 7.117188 26.691406 7.1875 27.023438 C 7.324219 27.65625 7.621094 28.234375 8.070312 28.679688 C 8.515625 29.128906 9.09375 29.425781 9.726562 29.5625 C 9.992188 29.621094 10.394531 29.648438 10.945312 29.675781 C 11.492188 29.699219 12.167969 29.714844 12.90625 29.726562 C 14.382812 29.75 16.097656 29.75 17.5 29.75 C 18.898438 29.75 20.617188 29.75 22.09375 29.726562 C 22.832031 29.714844 23.507812 29.699219 24.054688 29.675781 C 24.605469 29.648438 25.007812 29.621094 25.273438 29.5625 C 25.90625 29.425781 26.484375 29.128906 26.929688 28.679688 C 27.378906 28.234375 27.675781 27.65625 27.8125 27.023438 C 27.886719 26.691406 27.921875 26.113281 27.953125 25.332031 C 27.984375 24.550781 28 23.585938 28 22.574219 L 28 22.226562 L 27.992188 22.226562 C 27.988281 21.355469 27.980469 20.5 27.953125 19.816406 C 27.921875 19.035156 27.882812 18.460938 27.8125 18.125 C 27.675781 17.496094 27.378906 16.917969 26.933594 16.46875 C 26.484375 16.023438 25.90625 15.722656 25.273438 15.589844 C 25.007812 15.53125 24.605469 15.503906 24.054688 15.476562 C 23.507812 15.449219 22.832031 15.433594 22.09375 15.421875 C 20.617188 15.398438 18.898438 15.398438 17.5 15.398438 Z M 17.5 16.101562 C 18.898438 16.101562 20.617188 16.101562 22.082031 16.121094 C 22.816406 16.132812 23.488281 16.148438 24.023438 16.175781 C 24.558594 16.199219 24.976562 16.238281 25.125 16.273438 C 25.636719 16.382812 26.09375 16.621094 26.4375 16.964844 C 26.777344 17.308594 27.019531 17.761719 27.128906 18.273438 C 27.171875 18.472656 27.222656 19.074219 27.253906 19.84375 C 27.285156 20.613281 27.300781 21.574219 27.300781 22.574219 L 27.300781 22.617188 C 27.300781 23.601562 27.285156 24.546875 27.253906 25.304688 C 27.222656 26.074219 27.171875 26.679688 27.128906 26.875 C 27.019531 27.386719 26.777344 27.84375 26.4375 28.1875 C 26.09375 28.527344 25.636719 28.769531 25.125 28.878906 C 24.976562 28.910156 24.558594 28.949219 24.023438 28.976562 C 23.488281 29 22.816406 29.015625 22.082031 29.027344 C 20.617188 29.050781 18.898438 29.050781 17.5 29.050781 C 16.097656 29.050781 14.382812 29.050781 12.917969 29.027344 C 12.183594 29.015625 11.511719 29 10.976562 28.976562 C 10.441406 28.949219 10.023438 28.910156 9.875 28.878906 C 9.363281 28.769531 8.90625 28.527344 8.5625 28.1875 C 8.222656 27.84375 7.980469 27.386719 7.871094 26.875 C 7.828125 26.679688 7.777344 26.074219 7.746094 25.304688 C 7.714844 24.535156 7.699219 23.578125 7.699219 22.574219 C 7.699219 21.574219 7.714844 20.613281 7.746094 19.84375 C 7.777344 19.074219 7.828125 18.472656 7.871094 18.273438 C 7.980469 17.761719 8.21875 17.304688 8.5625 16.964844 C 8.90625 16.621094 9.363281 16.382812 9.875 16.273438 C 10.023438 16.238281 10.441406 16.199219 10.976562 16.175781 C 11.511719 16.148438 12.183594 16.132812 12.917969 16.121094 C 14.382812 16.101562 16.097656 16.101562 17.5 16.101562 Z M 9.101562 17.851562 L 9.101562 19.273438 L 10.5 19.273438 L 10.5 26.949219 L 11.898438 26.949219 L 11.898438 19.273438 L 13.300781 19.273438 L 13.300781 17.851562 Z M 18.199219 17.851562 L 18.199219 26.949219 L 19.601562 26.949219 L 19.601562 26.785156 C 19.796875 26.886719 20.019531 26.949219 20.257812 26.949219 C 21.054688 26.949219 21.699219 26.304688 21.699219 25.507812 L 21.699219 21.570312 C 21.699219 20.769531 21.054688 20.125 20.257812 20.125 C 20.019531 20.125 19.796875 20.1875 19.601562 20.289062 L 19.601562 17.851562 Z M 24.324219 20.125 C 23.261719 20.125 22.398438 20.988281 22.398438 22.050781 L 22.398438 25.023438 C 22.398438 26.089844 23.261719 26.949219 24.324219 26.949219 C 25.386719 26.949219 26.25 26.089844 26.25 25.023438 L 26.25 24.5 L 24.851562 24.5 L 24.851562 25.375 C 24.851562 25.664062 24.613281 25.898438 24.324219 25.898438 C 24.035156 25.898438 23.800781 25.664062 23.800781 25.375 L 23.800781 23.800781 L 26.25 23.800781 L 26.25 22.050781 C 26.25 20.988281 25.386719 20.125 24.324219 20.125 Z M 13.300781 20.300781 L 13.300781 25.921875 C 13.300781 26.488281 13.761719 26.949219 14.328125 26.949219 C 14.949219 26.949219 15.441406 26.546875 15.75 26.25 L 15.75 26.949219 L 17.152344 26.949219 L 17.152344 20.300781 L 15.75 20.300781 L 15.75 25.070312 C 15.75 25.070312 15.3125 25.550781 14.960938 25.550781 C 14.816406 25.550781 14.699219 25.433594 14.699219 25.289062 L 14.699219 20.300781 Z M 20.015625 21.351562 C 20.171875 21.351562 20.300781 21.476562 20.300781 21.632812 L 20.300781 25.617188 C 20.300781 25.773438 20.171875 25.898438 20.015625 25.898438 C 19.730469 25.898438 19.601562 25.679688 19.601562 25.679688 L 19.601562 21.570312 C 19.601562 21.570312 19.730469 21.351562 20.015625 21.351562 Z M 24.324219 21.351562 C 24.613281 21.351562 24.851562 21.585938 24.851562 21.875 L 24.851562 22.75 L 23.800781 22.75 L 23.800781 21.875 C 23.800781 21.585938 24.035156 21.351562 24.324219 21.351562 Z M 24.324219 21.351562 "/>
</g>
</svg>
