<?xml version="1.0" encoding="UTF-8"?>
<svg xmlns="http://www.w3.org/2000/svg" xmlns:xlink="http://www.w3.org/1999/xlink" width="40pt" height="40pt" viewBox="0 0 40 40" version="1.1">
<g id="surface19755503">
<path style=" stroke:none;fill-rule:nonzero;fill:rgb(53.72549%,65.882353%,58.039216%);fill-opacity:1;" d="M 12.800781 2.398438 C 7.0625 2.398438 2.398438 7.0625 2.398438 12.800781 L 2.398438 27.199219 C 2.398438 32.9375 7.0625 37.601562 12.800781 37.601562 L 27.199219 37.601562 C 32.9375 37.601562 37.601562 32.9375 37.601562 27.199219 L 37.601562 12.800781 C 37.601562 7.0625 32.9375 2.398438 27.199219 2.398438 Z M 29.601562 8.800781 C 30.480469 8.800781 31.199219 9.519531 31.199219 10.398438 C 31.199219 11.28125 30.480469 12 29.601562 12 C 28.71875 12 28 11.28125 28 10.398438 C 28 9.519531 28.71875 8.800781 29.601562 8.800781 Z M 20 11.199219 C 24.855469 11.199219 28.800781 15.144531 28.800781 20 C 28.800781 24.855469 24.855469 28.800781 20 28.800781 C 15.144531 28.800781 11.199219 24.855469 11.199219 20 C 11.199219 15.144531 15.144531 11.199219 20 11.199219 Z M 20 12.800781 C 16.03125 12.800781 12.800781 16.03125 12.800781 20 C 12.800781 23.96875 16.03125 27.199219 20 27.199219 C 23.96875 27.199219 27.199219 23.96875 27.199219 20 C 27.199219 16.03125 23.96875 12.800781 20 12.800781 Z M 20 12.800781 "/>
</g>
</svg>
