<?xml version="1.0" encoding="UTF-8"?>
<svg xmlns="http://www.w3.org/2000/svg" xmlns:xlink="http://www.w3.org/1999/xlink" width="30pt" height="30pt" viewBox="0 0 30 30" version="1.1">
<g id="surface1532115">
<path style=" stroke:none;fill-rule:nonzero;fill:rgb(53.72549%,65.882353%,58.039216%);fill-opacity:1;" d="M 15 1.199219 C 7.386719 1.199219 1.199219 7.386719 1.199219 15 C 1.199219 22.613281 7.386719 28.800781 15 28.800781 C 22.613281 28.800781 28.800781 22.613281 28.800781 15 C 28.800781 7.386719 22.613281 1.199219 15 1.199219 Z M 15 2.398438 C 21.964844 2.398438 27.601562 8.035156 27.601562 15 C 27.601562 21.964844 21.964844 27.601562 15 27.601562 C 8.035156 27.601562 2.398438 21.964844 2.398438 15 C 2.398438 8.035156 8.035156 2.398438 15 2.398438 Z M 20.429688 7.199219 C 20.386719 7.199219 20.339844 7.203125 20.296875 7.210938 L 12.078125 8.765625 C 11.6875 8.835938 11.398438 9.175781 11.398438 9.574219 L 11.398438 17.535156 C 11.398438 17.808594 11.214844 18.046875 10.949219 18.113281 L 8.878906 18.640625 L 8.707031 18.683594 C 7.917969 18.917969 7.324219 19.597656 7.21875 20.429688 C 7.191406 20.625 7.195312 20.820312 7.222656 21.015625 C 7.386719 22.070312 8.386719 22.800781 9.460938 22.800781 L 9.519531 22.800781 C 11.21875 22.800781 12.601562 21.421875 12.601562 19.71875 L 12.601562 13.398438 C 12.601562 12.992188 12.890625 12.644531 13.289062 12.574219 L 19.097656 11.445312 C 19.464844 11.378906 19.800781 11.660156 19.800781 12.035156 L 19.800781 15.734375 C 19.800781 16.007812 19.613281 16.246094 19.347656 16.316406 L 17.28125 16.84375 L 17.105469 16.882812 C 16.320312 17.117188 15.726562 17.796875 15.617188 18.628906 C 15.589844 18.824219 15.59375 19.019531 15.625 19.214844 C 15.789062 20.273438 16.789062 21 17.859375 21 L 17.917969 21 C 19.621094 21 21 19.621094 21 17.917969 L 21 7.800781 C 21 7.472656 20.742188 7.214844 20.433594 7.199219 Z M 20.429688 7.199219 "/>
</g>
</svg>
