<?xml version="1.0" encoding="UTF-8"?>
<svg xmlns="http://www.w3.org/2000/svg" xmlns:xlink="http://www.w3.org/1999/xlink" width="30pt" height="30pt" viewBox="0 0 30 30" version="1.1">
<g id="surface1532040">
<path style=" stroke:none;fill-rule:nonzero;fill:rgb(53.72549%,65.882353%,58.039216%);fill-opacity:1;" d="M 18 6.601562 C 15.839844 6.601562 13.800781 7.671875 12.601562 9.414062 L 12.601562 21.601562 L 25.5 21.601562 C 27.960938 21.601562 30 19.5625 30 17.101562 C 30 14.640625 27.960938 12.601562 25.5 12.601562 C 25.199219 12.601562 24.898438 12.652344 24.601562 12.710938 C 24.300781 9.292969 21.480469 6.601562 18 6.601562 Z M 10.199219 9.601562 C 9.78125 9.601562 9.359375 9.652344 9 9.710938 L 9 21.601562 L 10.199219 21.601562 Z M 10.800781 9.601562 L 10.800781 21.601562 L 12 21.601562 L 12 9.898438 C 11.640625 9.78125 11.21875 9.660156 10.800781 9.601562 Z M 8.398438 9.898438 C 7.980469 10.082031 7.5625 10.261719 7.199219 10.5 L 7.199219 21.601562 L 8.398438 21.601562 Z M 6.601562 10.988281 C 6.121094 11.40625 5.699219 11.945312 5.398438 12.542969 L 5.398438 21.601562 L 6.601562 21.601562 Z M 3.898438 13.199219 C 3.792969 13.207031 3.6875 13.226562 3.601562 13.257812 L 3.601562 21.542969 C 3.78125 21.605469 4.019531 21.601562 4.199219 21.601562 L 4.800781 21.601562 L 4.800781 13.257812 C 4.621094 13.195312 4.378906 13.199219 4.199219 13.199219 C 4.109375 13.199219 4.003906 13.191406 3.898438 13.199219 Z M 3 13.386719 C 2.582031 13.507812 2.160156 13.6875 1.800781 13.988281 L 1.800781 20.8125 C 2.160156 21.050781 2.582031 21.292969 3 21.414062 Z M 1.199219 14.457031 C 0.480469 15.238281 0 16.261719 0 17.398438 C 0 18.539062 0.480469 19.5625 1.199219 20.34375 Z M 1.199219 14.457031 "/>
</g>
</svg>
