<?xml version="1.0" encoding="UTF-8"?>
<svg xmlns="http://www.w3.org/2000/svg" xmlns:xlink="http://www.w3.org/1999/xlink" width="30pt" height="30pt" viewBox="0 0 30 30" version="1.1">
<g id="surface1426072">
<path style=" stroke:none;fill-rule:nonzero;fill:rgb(53.72549%,65.882353%,58.039216%);fill-opacity:1;" d="M 15.003906 1.1875 C 7.394531 1.1875 1.199219 7.382812 1.199219 14.996094 C 1.199219 22.605469 7.394531 28.800781 15.003906 28.800781 C 22.617188 28.800781 28.8125 22.605469 28.8125 14.996094 C 28.8125 7.382812 22.617188 1.1875 15.003906 1.1875 Z M 20.847656 21.199219 C 20.675781 21.460938 20.390625 21.601562 20.097656 21.601562 C 19.925781 21.601562 19.753906 21.550781 19.601562 21.449219 C 18.117188 20.460938 15.601562 19.800781 13.5 19.800781 C 11.273438 19.800781 9.601562 20.347656 9.585938 20.355469 C 9.113281 20.515625 8.601562 20.257812 8.445312 19.785156 C 8.289062 19.3125 8.542969 18.804688 9.015625 18.648438 C 9.09375 18.621094 10.984375 18.003906 13.5 18 C 15.601562 18 18.519531 18.566406 20.597656 19.953125 C 21.011719 20.226562 21.125 20.785156 20.847656 21.199219 Z M 22.644531 17.515625 C 22.449219 17.828125 22.113281 18 21.769531 18 C 21.582031 18 21.394531 17.953125 21.226562 17.84375 C 18.535156 16.167969 15.769531 15.8125 13.386719 15.835938 C 10.699219 15.859375 8.546875 16.371094 8.511719 16.382812 C 7.96875 16.539062 7.394531 16.21875 7.238281 15.671875 C 7.085938 15.125 7.402344 14.554688 7.949219 14.402344 C 8.117188 14.355469 10.261719 13.824219 13.199219 13.800781 C 15.878906 13.777344 19.21875 14.167969 22.316406 16.097656 C 22.796875 16.398438 22.945312 17.03125 22.644531 17.515625 Z M 24.433594 13.207031 C 24.210938 13.589844 23.808594 13.800781 23.398438 13.800781 C 23.191406 13.800781 22.984375 13.746094 22.792969 13.636719 C 19.65625 11.792969 15.84375 11.402344 13.199219 11.398438 C 13.1875 11.398438 13.171875 11.398438 13.160156 11.398438 C 9.960938 11.398438 7.496094 11.960938 7.472656 11.96875 C 6.824219 12.117188 6.179688 11.71875 6.03125 11.070312 C 5.882812 10.425781 6.28125 9.78125 6.925781 9.632812 C 7.039062 9.605469 9.671875 9 13.160156 9 C 13.175781 9 13.1875 9 13.203125 9 C 16.144531 9.003906 20.410156 9.453125 24.007812 11.566406 C 24.578125 11.902344 24.769531 12.636719 24.433594 13.207031 Z M 24.433594 13.207031 "/>
</g>
</svg>
