<?xml version="1.0" encoding="UTF-8"?>
<svg xmlns="http://www.w3.org/2000/svg" xmlns:xlink="http://www.w3.org/1999/xlink" width="40pt" height="40pt" viewBox="0 0 40 40" version="1.1">
<g id="surface19756027">
<path style=" stroke:none;fill-rule:nonzero;fill:rgb(53.72549%,65.882353%,58.039216%);fill-opacity:1;" d="M 20.007812 1.585938 C 9.859375 1.585938 1.601562 9.84375 1.601562 19.992188 C 1.601562 30.140625 9.859375 38.398438 20.007812 38.398438 C 30.15625 38.398438 38.414062 30.144531 38.414062 19.992188 C 38.414062 9.84375 30.15625 1.585938 20.007812 1.585938 Z M 27.796875 28.265625 C 27.566406 28.613281 27.1875 28.800781 26.796875 28.800781 C 26.570312 28.800781 26.339844 28.734375 26.132812 28.597656 C 24.15625 27.28125 20.800781 26.398438 18 26.402344 C 15.027344 26.402344 12.800781 27.132812 12.777344 27.140625 C 12.152344 27.351562 11.472656 27.007812 11.261719 26.378906 C 11.050781 25.753906 11.390625 25.070312 12.019531 24.863281 C 12.125 24.828125 14.644531 24.003906 18 24 C 20.800781 24 24.695312 24.753906 27.464844 26.601562 C 28.019531 26.96875 28.167969 27.714844 27.796875 28.265625 Z M 30.191406 23.355469 C 29.933594 23.773438 29.484375 24 29.023438 24 C 28.777344 24 28.527344 23.933594 28.300781 23.792969 C 24.710938 21.558594 21.027344 21.085938 17.851562 21.113281 C 14.265625 21.144531 11.398438 21.828125 11.347656 21.84375 C 10.625 22.050781 9.859375 21.625 9.652344 20.898438 C 9.445312 20.167969 9.871094 19.40625 10.601562 19.203125 C 10.820312 19.136719 13.683594 18.433594 17.601562 18.402344 C 21.171875 18.371094 25.625 18.890625 29.753906 21.460938 C 30.394531 21.863281 30.59375 22.710938 30.191406 23.355469 Z M 32.578125 17.609375 C 32.28125 18.117188 31.746094 18.398438 31.199219 18.398438 C 30.921875 18.398438 30.644531 18.328125 30.390625 18.179688 C 26.207031 15.726562 21.125 15.203125 17.597656 15.199219 C 17.582031 15.199219 17.5625 15.199219 17.546875 15.199219 C 13.28125 15.199219 9.996094 15.949219 9.960938 15.957031 C 9.101562 16.15625 8.242188 15.625 8.042969 14.761719 C 7.839844 13.902344 8.375 13.042969 9.234375 12.84375 C 9.382812 12.808594 12.894531 12 17.546875 12 C 17.566406 12 17.585938 12 17.601562 12 C 21.527344 12.003906 27.210938 12.601562 32.011719 15.421875 C 32.773438 15.867188 33.027344 16.847656 32.578125 17.609375 Z M 32.578125 17.609375 "/>
</g>
</svg>
