<?xml version="1.0" encoding="UTF-8"?>
<svg xmlns="http://www.w3.org/2000/svg" xmlns:xlink="http://www.w3.org/1999/xlink" width="40pt" height="40pt" viewBox="0 0 40 40" version="1.1">
<g id="surface20460530">
<path style=" stroke:none;fill-rule:nonzero;fill:rgb(53.72549%,65.882353%,58.039216%);fill-opacity:1;" d="M 11.601562 6 L 13.601562 12.398438 L 13.601562 16.398438 L 15.199219 16.398438 L 15.199219 12.398438 L 17.199219 6 L 15.601562 6 L 14.449219 10.148438 L 14.351562 10.148438 L 13.199219 6 Z M 19.457031 8.601562 C 18.765625 8.601562 18.222656 8.789062 17.816406 9.167969 C 17.40625 9.539062 17.199219 10.046875 17.199219 10.679688 L 17.199219 14.121094 C 17.199219 14.816406 17.398438 15.371094 17.796875 15.78125 C 18.195312 16.191406 18.722656 16.398438 19.390625 16.398438 C 20.078125 16.398438 20.617188 16.203125 21.007812 15.800781 C 21.402344 15.398438 21.597656 14.851562 21.597656 14.152344 L 21.597656 10.726562 C 21.597656 10.101562 21.398438 9.589844 20.996094 9.195312 C 20.597656 8.800781 20.085938 8.601562 19.457031 8.601562 Z M 22.800781 8.800781 L 22.800781 15.375 C 22.800781 15.941406 23.257812 16.398438 23.824219 16.398438 C 24.484375 16.398438 25.167969 15.988281 25.601562 15.484375 L 25.601562 16.398438 L 27.199219 16.398438 L 27.199219 8.800781 L 25.601562 8.800781 L 25.601562 14.480469 C 25.34375 14.746094 25.011719 15 24.75 15 C 24.558594 15 24.398438 14.84375 24.398438 14.648438 L 24.398438 8.800781 Z M 19.398438 10 C 19.730469 10 20 10.269531 20 10.601562 L 20 14.398438 C 20 14.730469 19.730469 15 19.398438 15 C 19.070312 15 18.800781 14.730469 18.800781 14.398438 L 18.800781 10.601562 C 18.800781 10.269531 19.070312 10 19.398438 10 Z M 20 17.601562 C 18.398438 17.601562 16.4375 17.601562 14.75 17.625 C 13.90625 17.636719 13.132812 17.65625 12.507812 17.6875 C 11.878906 17.714844 11.417969 17.75 11.113281 17.8125 C 10.394531 17.96875 9.730469 18.3125 9.222656 18.820312 C 8.710938 19.332031 8.371094 19.996094 8.214844 20.714844 C 8.132812 21.097656 8.089844 21.753906 8.054688 22.648438 C 8.019531 23.542969 8 24.644531 8 25.800781 C 8 26.953125 8.019531 28.054688 8.054688 28.949219 C 8.089844 29.84375 8.132812 30.503906 8.214844 30.882812 C 8.371094 31.605469 8.710938 32.269531 9.222656 32.777344 C 9.730469 33.289062 10.394531 33.628906 11.113281 33.785156 C 11.417969 33.851562 11.878906 33.882812 12.507812 33.914062 C 13.132812 33.941406 13.90625 33.960938 14.75 33.972656 C 16.4375 34 18.398438 34 20 34 C 21.597656 34 23.5625 34 25.25 33.972656 C 26.09375 33.960938 26.867188 33.941406 27.492188 33.914062 C 28.121094 33.882812 28.582031 33.851562 28.882812 33.785156 C 29.605469 33.628906 30.269531 33.289062 30.777344 32.777344 C 31.289062 32.269531 31.628906 31.605469 31.785156 30.882812 C 31.867188 30.503906 31.910156 29.84375 31.945312 28.949219 C 31.980469 28.058594 32 26.953125 32 25.800781 L 32 25.398438 L 31.992188 25.398438 C 31.988281 24.40625 31.976562 23.429688 31.945312 22.648438 C 31.910156 21.753906 31.867188 21.097656 31.785156 20.714844 C 31.628906 19.996094 31.289062 19.332031 30.78125 18.820312 C 30.269531 18.3125 29.605469 17.96875 28.886719 17.816406 L 28.882812 17.816406 C 28.582031 17.75 28.121094 17.714844 27.492188 17.6875 C 26.867188 17.660156 26.09375 17.636719 25.25 17.625 C 23.5625 17.601562 21.597656 17.601562 20 17.601562 Z M 20 18.398438 C 21.597656 18.398438 23.5625 18.398438 25.238281 18.425781 C 26.074219 18.4375 26.84375 18.457031 27.457031 18.484375 C 28.066406 18.515625 28.542969 18.558594 28.714844 18.597656 C 29.300781 18.722656 29.820312 18.996094 30.214844 19.386719 C 30.605469 19.777344 30.878906 20.300781 31.003906 20.886719 C 31.050781 21.109375 31.113281 21.800781 31.148438 22.679688 C 31.179688 23.558594 31.199219 24.652344 31.199219 25.800781 L 31.199219 25.847656 C 31.199219 26.972656 31.179688 28.054688 31.148438 28.917969 C 31.113281 29.796875 31.050781 30.488281 31.003906 30.714844 C 30.878906 31.300781 30.605469 31.820312 30.214844 32.214844 C 29.820312 32.605469 29.300781 32.878906 28.714844 33.003906 C 28.542969 33.039062 28.066406 33.085938 27.457031 33.113281 C 26.84375 33.144531 26.074219 33.160156 25.238281 33.175781 C 23.5625 33.199219 21.597656 33.199219 20 33.199219 C 18.398438 33.199219 16.4375 33.199219 14.761719 33.175781 C 13.925781 33.160156 13.15625 33.144531 12.542969 33.113281 C 11.933594 33.085938 11.457031 33.039062 11.285156 33.003906 C 10.699219 32.878906 10.179688 32.605469 9.785156 32.214844 C 9.394531 31.820312 9.121094 31.300781 8.996094 30.714844 C 8.949219 30.492188 8.886719 29.800781 8.851562 28.917969 C 8.820312 28.039062 8.800781 26.945312 8.800781 25.800781 C 8.800781 24.652344 8.820312 23.558594 8.851562 22.679688 C 8.886719 21.800781 8.949219 21.109375 8.996094 20.882812 C 9.121094 20.300781 9.394531 19.777344 9.785156 19.386719 C 10.175781 18.996094 10.699219 18.722656 11.285156 18.597656 C 11.457031 18.558594 11.929688 18.515625 12.542969 18.484375 C 13.15625 18.457031 13.921875 18.4375 14.761719 18.425781 C 16.4375 18.398438 18.398438 18.398438 20 18.398438 Z M 10.398438 20.398438 L 10.398438 22.027344 L 12 22.027344 L 12 30.800781 L 13.601562 30.800781 L 13.601562 22.027344 L 15.199219 22.027344 L 15.199219 20.398438 Z M 20.800781 20.398438 L 20.800781 30.800781 L 22.398438 30.800781 L 22.398438 30.613281 C 22.625 30.726562 22.878906 30.800781 23.148438 30.800781 C 24.0625 30.800781 24.800781 30.0625 24.800781 29.148438 L 24.800781 24.648438 C 24.800781 23.738281 24.0625 23 23.148438 23 C 22.878906 23 22.625 23.074219 22.398438 23.1875 L 22.398438 20.398438 Z M 27.800781 23 C 26.585938 23 25.601562 23.984375 25.601562 25.199219 L 25.601562 28.601562 C 25.601562 29.816406 26.585938 30.800781 27.800781 30.800781 C 29.015625 30.800781 30 29.816406 30 28.601562 L 30 28 L 28.398438 28 L 28.398438 29 C 28.398438 29.332031 28.132812 29.601562 27.800781 29.601562 C 27.46875 29.601562 27.199219 29.332031 27.199219 29 L 27.199219 27.199219 L 30 27.199219 L 30 25.199219 C 30 23.984375 29.015625 23 27.800781 23 Z M 15.199219 23.199219 L 15.199219 29.625 C 15.199219 30.273438 15.726562 30.800781 16.375 30.800781 C 17.082031 30.800781 17.648438 30.339844 18 30 L 18 30.800781 L 19.601562 30.800781 L 19.601562 23.199219 L 18 23.199219 L 18 28.648438 C 18 28.648438 17.5 29.199219 17.101562 29.199219 C 16.933594 29.199219 16.800781 29.066406 16.800781 28.898438 L 16.800781 23.199219 Z M 22.875 24.398438 C 23.054688 24.398438 23.199219 24.546875 23.199219 24.726562 L 23.199219 29.273438 C 23.199219 29.453125 23.054688 29.601562 22.875 29.601562 C 22.550781 29.601562 22.398438 29.351562 22.398438 29.351562 L 22.398438 24.648438 C 22.398438 24.648438 22.550781 24.398438 22.875 24.398438 Z M 27.800781 24.398438 C 28.132812 24.398438 28.398438 24.667969 28.398438 25 L 28.398438 26 L 27.199219 26 L 27.199219 25 C 27.199219 24.667969 27.46875 24.398438 27.800781 24.398438 Z M 27.800781 24.398438 "/>
</g>
</svg>
